<svg xmlns="http://www.w3.org/2000/svg" viewBox="0 0 600 451">
  <style>.a{fill:#000;stroke-width:0px;fill-rule:evenodd;} @media(prefers-color-scheme:dark){.a{fill: #fff}}</style>
  <path class="a" d="M115.9,44.1l-84.9,12.6C11.1,59.6-2.5,78,.4,97.7l42.4,283c3,19.7,21.4,33.3,41.3,30.4l31.8-4.7V44.1Z"/>
  <path class="a" d="M569,56.7l-83.8-12.4v362.3l30.7,4.6c19.8,2.9,38.3-10.7,41.3-30.4l42.4-283c3-19.7-10.7-38.1-30.6-41h0Z"/>
  <path class="a" d="M175,4.1h251.2c20.1,0,36.3,16.2,36.3,36.1v370.3c0,20-16.3,36.1-36.3,36.1h-251.2c-20.1,0-36.3-16.2-36.3-36.1V40.2c0-20,16.3-36.1,36.3-36.1ZM327.6,183.9h76.3c7.3,0,11.6,8.2,7.5,14.2l-108.6,157.7c-5.1,7.3-16.6,3.8-16.6-5.1v-81.8h0c0,0-89,0-89,0-6.7,0-11.1-7-8.2-13l75-154c1.5-3.1,4.7-5.1,8.2-5.1h83.3c6.7,0,11.1,7,8.2,13l-36.1,74.1Z"/>
</svg>